<?xml version="1.0" encoding="utf-8"?>
<!-- Generator: Adobe Illustrator 28.0.0, SVG Export Plug-In . SVG Version: 6.00 Build 0)  -->
<svg version="1.1" xmlns="http://www.w3.org/2000/svg" xmlns:xlink="http://www.w3.org/1999/xlink" x="0px" y="0px"
	 viewBox="0 0 68.05 23.86" style="enable-background:new 0 0 68.05 23.86;" xml:space="preserve">
<style type="text/css">
	.st0{fill:#D20D1B;}
</style>
<g id="business_card">
	<g>
		<g>
			<path class="st0" d="M66.96,1.59c-0.6,0-1.09,0.49-1.09,1.09s0.49,1.09,1.09,1.09c0.6,0,1.09-0.49,1.09-1.09
				S67.56,1.59,66.96,1.59z M67.56,3.31L67.2,2.77c0.18-0.05,0.29-0.18,0.29-0.37c0-0.18-0.08-0.39-0.45-0.39h-0.52v1.33h0.22V2.79
				h0.2l0.37,0.56h0.21c-0.15,0.13-0.35,0.21-0.57,0.21c-0.48,0-0.87-0.39-0.87-0.87c0-0.48,0.39-0.87,0.87-0.87
				c0.48,0,0.87,0.39,0.87,0.87C67.83,2.93,67.73,3.15,67.56,3.31z M67.01,2.59h-0.27V2.22h0.27c0.23,0,0.26,0.1,0.26,0.18
				c0,0.06-0.01,0.1-0.05,0.13C67.19,2.57,67.11,2.59,67.01,2.59z"/>
			<path class="st0" d="M7.22,16.51c1.66,2.3,3.65,2.3,4.4,2.2c0.14-0.02,0.22-0.17,0.16-0.29c-0.38-0.71-1.17-3.16,1.44-9.04
				c2.28-5.16,5.35-6.67,6.12-6.99c0.1-0.04,0.15-0.15,0.12-0.25c-1.48-4.05-4.79-1.65-6.47,1.44c-1.42,2.62-2.73,7.71-3.12,9.32
				c-0.04,0.18-0.3,0.21-0.38,0.04c-0.36-0.73-0.96-2.37-0.91-5.27c0.05-3.63,1.48-6.05,1.94-6.75c0.07-0.11,0.02-0.26-0.1-0.3
				C9.35,0.26,7.57,0.15,5.46,0.69C3.04,1.31-0.11,3.44,0,5.99c0.09,2.05,1.63,2.7,2.22,2.87c0.12,0.04,0.24-0.04,0.26-0.17
				C3.04,5.3,5.71,3.63,6.83,3.07C7,2.98,7.18,3.15,7.11,3.32C5.21,7.86,5.2,13.7,7.22,16.51z"/>
			<path class="st0" d="M21.86,7.91c-0.6,1.14,0.21,2.01,0.63,2.36c0.1,0.08,0.25,0.05,0.32-0.06c0.27-0.52,1.25-1.74,4.56-2.01
				c0.82-0.07,1.83-0.27,1.83-0.27c-1.52,2.33-3.51,2.8-5.93,4.67c-2.01,1.55-2.12,3.58-2.1,4.23c0,0.11,0.1,0.2,0.22,0.19
				c0.39-0.03,1.39-0.08,3.28-0.01c3.82,0.13,5.55-0.24,5.69-1.74c0.11-1.24-0.53-1.81-0.88-2.02c-0.1-0.06-0.24-0.02-0.3,0.09
				c-0.14,0.3-0.49,0.87-1.28,1.3c-1.12,0.62-4.09,0.79-4.09,0.79c0.32-0.68,1.27-1.04,4.48-3.79c2.57-2.21,2.7-4.18,2.65-4.86
				c-0.01-0.13-0.13-0.21-0.25-0.18c-0.39,0.09-1.41,0.2-3.94-0.04C24.68,6.34,22.6,6.51,21.86,7.91z"/>
			<path class="st0" d="M32.1,9.94c0.1,0.08,0.25,0.05,0.31-0.06c0.27-0.5,1.23-1.68,4.5-1.95c0.81-0.07,1.81-0.26,1.81-0.26
				c-1.5,2.26-3.46,2.71-5.85,4.52c-1.98,1.5-2.09,3.46-2.07,4.1c0,0.11,0.1,0.2,0.22,0.19c0.39-0.03,1.37-0.08,3.23-0.01
				c3.76,0.13,5.47-0.24,5.6-1.69c0.11-1.2-0.52-1.75-0.86-1.96c-0.1-0.06-0.24-0.02-0.29,0.08c-0.14,0.29-0.48,0.84-1.26,1.26
				c-1.1,0.6-4.03,0.77-4.03,0.77c0.31-0.66,1.26-1.01,4.41-3.68c2.54-2.14,2.67-4.04,2.62-4.71c-0.01-0.12-0.13-0.21-0.25-0.18
				c-0.38,0.09-1.39,0.19-3.88-0.03c-2.04-0.19-4.09-0.02-4.82,1.33C30.89,8.77,31.69,9.61,32.1,9.94z"/>
			<path class="st0" d="M42.08,16.3c2.05,0.45,3.36-1.87,3.52-2.69c0,0,0.07,2.62,1.55,2.68c1.28,0.05,2.13-1.49,2.65-2.93
				c-0.1,0.58-0.18,1.11-0.21,1.54c-0.15,1.99,1.86,2.01,2.67,1.22c0.04-0.04,0.05-0.1,0.03-0.15c-0.12-0.3-0.5-1.41-0.05-2.92
				c0.52-1.78,2.03-4.22,2.81-4c0.6,0.16-0.29,1.49-0.23,2.88c0.06,1.24,1.32,1.89,2.44,0.65c-0.44,2.32-0.44,4.36,0.84,4.64
				c1.37,0.3,3.03-2.78,3.46-4.1c0-0.01,0.01-0.02,0.01-0.02c0.05-0.15-0.15-0.25-0.25-0.13c-0.52,0.69-1.28,1.6-1.64,1.48
				c-0.56-0.19-0.52-0.99,0.69-4.99c0.33-1.1,0.6-1.98,0.84-2.69c0.91,0.22,1.77,0.42,2.59,0.37c1.17-0.08,1.31-1.26,1.32-1.75
				c0-0.1-0.09-0.17-0.18-0.14C64.7,5.3,64.18,5.39,63.33,5.3c-0.42-0.05-0.9-0.17-1.43-0.31c0.39-0.79,0.8-1.27,1.46-1.8
				c0.06-0.05,0.07-0.13,0.03-0.2C63.1,2.6,62,1.43,60.47,3.06c-0.26,0.28-0.55,0.79-0.83,1.45c-0.35-0.04-0.71-0.05-1.08-0.04
				C57,4.54,57.09,5.92,57.17,6.44c0.02,0.09,0.12,0.14,0.2,0.11c0.24-0.11,0.74-0.26,1.56-0.2c-0.66,1.93-1.25,4.2-1.54,5.57
				c-0.39,0.4-0.78,0.64-1.05,0.36c-0.9-0.93,2.78-5.27,0.16-5.64c-1.77-0.25-3.31,2.68-3.31,2.68s-0.17-0.9,1.05-2.66
				c0.05-0.07,0.03-0.15-0.03-0.2c-0.35-0.25-1.45-0.87-2.39,0.58c-0.58,0.89-1.19,2.7-1.63,4.47c-0.42,0.96-1.27,2.74-1.85,2.72
				c-0.79-0.04-1.13-1.47-0.24-3.96c0.72-2.01,1.1-2.47,1.37-2.58c0.06-0.02,0.09-0.08,0.09-0.13c-0.01-0.29-0.15-1.04-1.24-0.88
				c-1.35,0.19-1.7,1.59-1.7,1.59s-0.05-1.97-2.06-1.97c-2.02,0-3.52,2.26-4.06,4.02C39.97,12.08,40.02,15.85,42.08,16.3z
				 M42.59,10.91c0.39-1.43,1.3-2.51,2.03-2.4c0.73,0.11,0.81,1.37,0.42,2.81c-0.39,1.43-1.1,2.49-1.83,2.38
				C42.48,13.59,42.2,12.34,42.59,10.91z"/>
			<path class="st0" d="M21.72,6.92c0.1-0.12,0.04-0.31-0.11-0.34c-0.63-0.14-2.01-0.15-3.32,0.08c-1.73,0.31-4.06,1.4-4.11,3.19
				c-0.04,1.4,1.07,1.94,1.56,2.11c0.11,0.04,0.24-0.03,0.26-0.15c0.57-2.53,2.9-3.38,2.9-3.38c-1.66,2.02-3.11,5.74-2.37,8.07
				c0.48,1.51,2.3,1.34,3.06,1.2c0.15-0.03,0.22-0.2,0.13-0.33c-0.39-0.55-1.12-2.07-0.51-5.22C19.74,9.41,21.19,7.54,21.72,6.92z"
				/>
			<path class="st0" d="M21.23,5.62c0.69-0.03,1.22-0.61,1.19-1.3c-0.03-0.69-0.61-1.22-1.3-1.19c-0.69,0.03-1.22,0.61-1.19,1.3
				C19.96,5.12,20.54,5.65,21.23,5.62z"/>
			<path class="st0" d="M65.13,18.37c0,0-11.43-1.17-25.78-0.91C28,17.68,16.89,18.67,6.09,20.39l2.61,3.47
				c12.91-3.22,28.07-5,42.9-5.44C59,18.2,65.13,18.37,65.13,18.37z"/>
			<polygon class="st0" points="34.72,21.01 35.11,21.01 35.11,23.07 35.45,23.07 35.45,21.01 35.85,21.01 35.85,20.69 34.72,20.69 
							"/>
			<polygon class="st0" points="37.09,21.71 36.67,21.71 36.67,20.69 36.33,20.69 36.33,23.07 36.67,23.07 36.67,22.01 37.09,22.01 
				37.09,23.07 37.44,23.07 37.44,20.69 37.09,20.69 			"/>
			<polygon class="st0" points="38.09,23.07 39.11,23.07 39.11,22.73 38.43,22.73 38.43,22.03 39.02,22.03 39.02,21.71 38.43,21.71 
				38.43,21.01 39.11,21.01 39.11,20.69 38.09,20.69 			"/>
			<path class="st0" d="M41.55,20.83c-0.1-0.1-0.23-0.16-0.39-0.16c-0.08,0-0.16,0.01-0.23,0.04c-0.07,0.03-0.13,0.07-0.18,0.12
				c-0.05,0.05-0.09,0.11-0.11,0.17c-0.03,0.07-0.04,0.14-0.04,0.22v1.31c0,0.11,0.02,0.2,0.05,0.27c0.03,0.07,0.08,0.13,0.13,0.17
				s0.11,0.08,0.18,0.09s0.13,0.03,0.2,0.03c0.08,0,0.15-0.02,0.21-0.05c0.07-0.03,0.12-0.07,0.17-0.12
				c0.05-0.05,0.09-0.11,0.12-0.18c0.03-0.07,0.04-0.14,0.04-0.21v-0.15h-0.34v0.12c0,0.05-0.01,0.09-0.02,0.12
				c-0.01,0.03-0.03,0.06-0.05,0.07c-0.02,0.02-0.05,0.03-0.07,0.04c-0.03,0.01-0.05,0.01-0.07,0.01c-0.08,0-0.13-0.02-0.16-0.07
				c-0.03-0.05-0.05-0.1-0.05-0.17v-1.22c0-0.08,0.01-0.15,0.04-0.2c0.03-0.05,0.08-0.08,0.17-0.08c0.06,0,0.12,0.02,0.15,0.07
				c0.04,0.05,0.06,0.11,0.06,0.17v0.11h0.34v-0.13c0-0.08-0.01-0.16-0.04-0.23C41.63,20.94,41.6,20.88,41.55,20.83z"/>
			<path class="st0" d="M43.26,20.81c-0.06-0.05-0.12-0.08-0.19-0.11c-0.07-0.02-0.14-0.04-0.21-0.04c-0.07,0-0.14,0.01-0.21,0.04
				c-0.07,0.02-0.13,0.06-0.18,0.11c-0.06,0.05-0.1,0.11-0.13,0.18c-0.03,0.07-0.05,0.16-0.05,0.25v1.26c0,0.1,0.02,0.19,0.05,0.26
				c0.03,0.07,0.08,0.13,0.13,0.18c0.05,0.05,0.11,0.09,0.18,0.11c0.07,0.02,0.14,0.04,0.21,0.04c0.07,0,0.14-0.01,0.21-0.04
				c0.07-0.02,0.13-0.06,0.19-0.11c0.05-0.05,0.1-0.11,0.13-0.18c0.03-0.07,0.05-0.16,0.05-0.26v-1.26c0-0.1-0.02-0.18-0.05-0.25
				C43.36,20.92,43.31,20.86,43.26,20.81z M43.1,22.51c0,0.08-0.02,0.14-0.07,0.18c-0.05,0.04-0.1,0.06-0.16,0.06
				c-0.06,0-0.12-0.02-0.16-0.06c-0.05-0.04-0.07-0.1-0.07-0.18v-1.26c0-0.08,0.02-0.14,0.07-0.18c0.05-0.04,0.1-0.06,0.16-0.06
				c0.06,0,0.12,0.02,0.16,0.06c0.05,0.04,0.07,0.1,0.07,0.18V22.51z"/>
			<path class="st0" d="M45.02,20.81c-0.06-0.05-0.12-0.08-0.19-0.11c-0.07-0.02-0.14-0.04-0.21-0.04c-0.07,0-0.14,0.01-0.21,0.04
				c-0.07,0.02-0.13,0.06-0.18,0.11c-0.06,0.05-0.1,0.11-0.13,0.18c-0.03,0.07-0.05,0.16-0.05,0.25v1.26c0,0.1,0.02,0.19,0.05,0.26
				c0.03,0.07,0.08,0.13,0.13,0.18c0.05,0.05,0.11,0.09,0.18,0.11c0.07,0.02,0.14,0.04,0.21,0.04c0.07,0,0.14-0.01,0.21-0.04
				c0.07-0.02,0.13-0.06,0.19-0.11c0.05-0.05,0.1-0.11,0.13-0.18c0.03-0.07,0.05-0.16,0.05-0.26v-1.26c0-0.1-0.02-0.18-0.05-0.25
				C45.12,20.92,45.07,20.86,45.02,20.81z M44.86,22.51c0,0.08-0.02,0.14-0.07,0.18c-0.05,0.04-0.1,0.06-0.16,0.06
				c-0.06,0-0.12-0.02-0.16-0.06c-0.05-0.04-0.07-0.1-0.07-0.18v-1.26c0-0.08,0.02-0.14,0.07-0.18c0.05-0.04,0.1-0.06,0.16-0.06
				c0.06,0,0.12,0.02,0.16,0.06c0.05,0.04,0.07,0.1,0.07,0.18V22.51z"/>
			<polygon class="st0" points="47.02,20.69 46.68,20.69 46.18,21.78 46.18,21.78 46.18,20.69 45.83,20.69 45.83,23.07 46.18,23.07 
				46.18,22.36 46.36,22.01 46.75,23.07 47.11,23.07 46.56,21.64 			"/>
			<polygon class="st0" points="48.84,22.24 48.83,22.24 48.55,20.69 48.29,20.69 48.03,22.2 48.02,22.2 47.85,20.69 47.49,20.69 
				47.84,23.07 48.16,23.07 48.42,21.53 48.43,21.53 48.69,23.07 49.01,23.07 49.36,20.69 49,20.69 			"/>
			<path class="st0" d="M50.19,20.69l-0.53,2.38H50l0.1-0.51h0.46l0.1,0.51h0.34l-0.53-2.38H50.19z M50.16,22.24l0.17-0.86h0.01
				l0.17,0.86H50.16z"/>
			<path class="st0" d="M52.59,21.75c0.04-0.1,0.07-0.22,0.07-0.36c0-0.47-0.2-0.7-0.6-0.7h-0.55v2.38h0.34v-1.02h0.2l0.32,1.02
				h0.36l-0.37-1.09C52.47,21.92,52.55,21.84,52.59,21.75z M52.31,21.54c-0.01,0.05-0.02,0.08-0.04,0.12
				c-0.02,0.03-0.05,0.06-0.08,0.07c-0.04,0.02-0.08,0.03-0.14,0.03h-0.19v-0.74h0.18c0.12,0,0.2,0.03,0.24,0.09
				c0.02,0.03,0.03,0.07,0.04,0.12c0.01,0.05,0.01,0.1,0.01,0.16C52.32,21.44,52.31,21.49,52.31,21.54z"/>
			<polygon class="st0" points="53.27,23.07 54.28,23.07 54.28,22.73 53.61,22.73 53.61,22.03 54.2,22.03 54.2,21.71 53.61,21.71 
				53.61,21.01 54.28,21.01 54.28,20.69 53.27,20.69 			"/>
			<path class="st0" d="M56.72,20.83c-0.1-0.1-0.23-0.16-0.39-0.16c-0.08,0-0.16,0.01-0.23,0.04c-0.07,0.03-0.13,0.07-0.18,0.12
				c-0.05,0.05-0.09,0.11-0.11,0.17c-0.03,0.07-0.04,0.14-0.04,0.22v1.31c0,0.11,0.02,0.2,0.05,0.27c0.03,0.07,0.08,0.13,0.13,0.17
				s0.11,0.08,0.18,0.09s0.13,0.03,0.2,0.03c0.08,0,0.15-0.02,0.21-0.05c0.07-0.03,0.12-0.07,0.17-0.12
				c0.05-0.05,0.09-0.11,0.12-0.18c0.03-0.07,0.04-0.14,0.04-0.21v-0.15h-0.34v0.12c0,0.05-0.01,0.09-0.02,0.12
				c-0.01,0.03-0.03,0.06-0.05,0.07c-0.02,0.02-0.05,0.03-0.07,0.04c-0.03,0.01-0.05,0.01-0.07,0.01c-0.08,0-0.13-0.02-0.16-0.07
				c-0.03-0.05-0.05-0.1-0.05-0.17v-1.22c0-0.08,0.01-0.15,0.04-0.2c0.03-0.05,0.08-0.08,0.17-0.08c0.06,0,0.12,0.02,0.15,0.07
				c0.04,0.05,0.06,0.11,0.06,0.17v0.11h0.34v-0.13c0-0.08-0.01-0.16-0.04-0.23C56.81,20.94,56.77,20.88,56.72,20.83z"/>
			<path class="st0" d="M58.43,20.81c-0.06-0.05-0.12-0.08-0.19-0.11c-0.07-0.02-0.14-0.04-0.21-0.04c-0.07,0-0.14,0.01-0.21,0.04
				c-0.07,0.02-0.13,0.06-0.18,0.11c-0.06,0.05-0.1,0.11-0.13,0.18c-0.03,0.07-0.05,0.16-0.05,0.25v1.26c0,0.1,0.02,0.19,0.05,0.26
				c0.03,0.07,0.08,0.13,0.13,0.18c0.05,0.05,0.11,0.09,0.18,0.11c0.07,0.02,0.14,0.04,0.21,0.04c0.07,0,0.14-0.01,0.21-0.04
				c0.07-0.02,0.13-0.06,0.19-0.11c0.05-0.05,0.1-0.11,0.13-0.18c0.03-0.07,0.05-0.16,0.05-0.26v-1.26c0-0.1-0.02-0.18-0.05-0.25
				C58.53,20.92,58.49,20.86,58.43,20.81z M58.27,22.51c0,0.08-0.02,0.14-0.07,0.18c-0.05,0.04-0.1,0.06-0.16,0.06
				c-0.06,0-0.12-0.02-0.16-0.06c-0.05-0.04-0.07-0.1-0.07-0.18v-1.26c0-0.08,0.02-0.14,0.07-0.18c0.05-0.04,0.1-0.06,0.16-0.06
				c0.06,0,0.12,0.02,0.16,0.06c0.05,0.04,0.07,0.1,0.07,0.18V22.51z"/>
			<polygon class="st0" points="60.02,21.95 60.02,21.95 59.58,20.69 59.25,20.69 59.25,23.07 59.59,23.07 59.59,21.62 59.6,21.62 
				59.93,22.65 60.1,22.65 60.44,21.62 60.45,21.62 60.45,23.07 60.79,23.07 60.79,20.69 60.46,20.69 			"/>
			<path class="st0" d="M62.4,20.86c-0.06-0.06-0.12-0.11-0.19-0.13c-0.07-0.02-0.15-0.04-0.25-0.04h-0.51v2.38h0.34v-0.93h0.17
				c0.13,0,0.23-0.02,0.31-0.07c0.08-0.04,0.14-0.1,0.19-0.18c0.04-0.06,0.07-0.13,0.08-0.21c0.01-0.07,0.02-0.16,0.02-0.27
				c0-0.14-0.01-0.26-0.03-0.34C62.5,20.99,62.45,20.92,62.4,20.86z M62.22,21.58c0,0.05-0.01,0.09-0.03,0.12
				c-0.02,0.04-0.05,0.06-0.08,0.08c-0.04,0.02-0.09,0.03-0.16,0.03h-0.16v-0.81h0.18c0.07,0,0.12,0.01,0.15,0.03
				c0.04,0.02,0.06,0.05,0.08,0.09c0.02,0.04,0.03,0.08,0.03,0.13c0,0.05,0,0.1,0,0.16C62.23,21.48,62.23,21.53,62.22,21.58z"/>
			<path class="st0" d="M63.39,20.69l-0.53,2.38h0.34l0.1-0.51h0.46l0.1,0.51h0.34l-0.53-2.38H63.39z M63.36,22.24l0.17-0.86h0.01
				l0.17,0.86H63.36z"/>
			<polygon class="st0" points="65.55,22.12 65.54,22.12 65.03,20.69 64.7,20.69 64.7,23.07 65.04,23.07 65.04,21.64 65.05,21.64 
				65.57,23.07 65.89,23.07 65.89,20.69 65.55,20.69 			"/>
			<polygon class="st0" points="67.02,21.64 67.02,21.64 66.74,20.69 66.38,20.69 66.85,22.06 66.85,23.07 67.19,23.07 67.19,22.06 
				67.66,20.69 67.3,20.69 			"/>
		</g>
	</g>
</g>
<g id="business_card_1_">
</g>
</svg>
